REM DIRINDEX 1\8,1\2\11,1\3\12,1\3\14,1\5\15,1\5\16,1\6\17,1\6\18,1\4\19,1\4\20,1\4\21,1\4\22,1\7\23,1\7\24,1\7\25,1\2\9\26,1\2\9\27,1\2\10\28,1\2\10\29,1\2\10\30,1\2\10\31,1\2\10\32,1\3\13\33,1\3\13\34,1\3\13\35
REM DIRNAME cjc123,folder01,folder02,folder03,folder04,folder05,folder06,folder07,folder08,folder09,folder10,folder11,folder12,folder13,folder14,folder15,folder16,folder17,folder18,folder19,folder20,folder21,folder22,folder23,folder24,folder25,folder26,folder27,folder28,folder29,folder30,folder31,folder32,folder33,folder34
TITLE ""
FILE "94 094_UNIT3_SET6.mp3" MP3
  TRACK 01 AUDIO
    TITLE "14:cjc123_8050"
    INDEX 01 00:00:00
  TRACK 02 AUDIO
    TITLE "0:"
    INDEX 01 00:02:59
  TRACK 03 AUDIO
    TITLE "33:cjc123_8051"
    INDEX 01 00:03:27
  TRACK 04 AUDIO
    TITLE "0:"
    INDEX 01 00:04:25
  TRACK 05 AUDIO
    TITLE "34:cjc123_8052"
    INDEX 01 00:04:58
  TRACK 06 AUDIO
    TITLE "0:"
    INDEX 01 00:05:59
  TRACK 07 AUDIO
    TITLE "35:cjc123_8053"
    INDEX 01 00:06:31
  TRACK 08 AUDIO
    TITLE "0:"
    INDEX 01 00:10:72
  TRACK 09 AUDIO
    TITLE "33:cjc123_8054"
    INDEX 01 00:11:52
  TRACK 10 AUDIO
    TITLE "0:"
    INDEX 01 00:12:67
  TRACK 11 AUDIO
    TITLE "34:cjc123_8055"
    INDEX 01 00:13:30
  TRACK 12 AUDIO
    TITLE "0:"
    INDEX 01 00:14:49
  TRACK 13 AUDIO
    TITLE "35:cjc123_8056"
    INDEX 01 00:15:25
  TRACK 14 AUDIO
    TITLE "0:"
    INDEX 01 00:19:28
  TRACK 15 AUDIO
    TITLE "33:cjc123_8057"
    INDEX 01 00:20:10
  TRACK 16 AUDIO
    TITLE "0:"
    INDEX 01 00:21:25
  TRACK 17 AUDIO
    TITLE "34:cjc123_8058"
    INDEX 01 00:21:49
  TRACK 18 AUDIO
    TITLE "0:"
    INDEX 01 00:22:60
  TRACK 19 AUDIO
    TITLE "35:cjc123_8059"
    INDEX 01 00:23:34
  TRACK 20 AUDIO
    TITLE "0:"
    INDEX 01 00:28:04
  TRACK 21 AUDIO
    TITLE "33:cjc123_8060"
    INDEX 01 00:28:57
  TRACK 22 AUDIO
    TITLE "0:"
    INDEX 01 00:29:52
  TRACK 23 AUDIO
    TITLE "34:cjc123_8061"
    INDEX 01 00:29:68
  TRACK 24 AUDIO
    TITLE "0:"
    INDEX 01 00:30:61
  TRACK 25 AUDIO
    TITLE "35:cjc123_8062"
    INDEX 01 00:31:35
  TRACK 26 AUDIO
    TITLE "0:"
    INDEX 01 00:36:15
  TRACK 27 AUDIO
    TITLE "33:cjc123_8063"
    INDEX 01 00:36:64
  TRACK 28 AUDIO
    TITLE "0:"
    INDEX 01 00:37:69
  TRACK 29 AUDIO
    TITLE "34:cjc123_8064"
    INDEX 01 00:38:02
  TRACK 30 AUDIO
    TITLE "0:"
    INDEX 01 00:39:00
  TRACK 31 AUDIO
    TITLE "35:cjc123_8065"
    INDEX 01 00:39:47
  TRACK 32 AUDIO
    TITLE "0:"
    INDEX 01 00:44:16
  TRACK 33 AUDIO
    TITLE "33:cjc123_8066"
    INDEX 01 00:44:65
  TRACK 34 AUDIO
    TITLE "0:"
    INDEX 01 00:45:67
  TRACK 35 AUDIO
    TITLE "34:cjc123_8067"
    INDEX 01 00:46:06
  TRACK 36 AUDIO
    TITLE "0:"
    INDEX 01 00:47:01
  TRACK 37 AUDIO
    TITLE "35:cjc123_8068"
    INDEX 01 00:47:54
  TRACK 38 AUDIO
    TITLE "0:"
    INDEX 01 00:53:21
  TRACK 39 AUDIO
    TITLE "33:cjc123_8069"
    INDEX 01 00:53:72
  TRACK 40 AUDIO
    TITLE "0:"
    INDEX 01 00:55:14
  TRACK 41 AUDIO
    TITLE "34:cjc123_8070"
    INDEX 01 00:55:55
  TRACK 42 AUDIO
    TITLE "0:"
    INDEX 01 00:56:67
  TRACK 43 AUDIO
    TITLE "35:cjc123_8071"
    INDEX 01 00:57:46
  TRACK 44 AUDIO
    TITLE "0:"
    INDEX 01 01:01:70
  TRACK 45 AUDIO
    TITLE "33:cjc123_8072"
    INDEX 01 01:02:52
  TRACK 46 AUDIO
    TITLE "0:"
    INDEX 01 01:03:49
  TRACK 47 AUDIO
    TITLE "34:cjc123_8073"
    INDEX 01 01:03:65
  TRACK 48 AUDIO
    TITLE "0:"
    INDEX 01 01:04:58
  TRACK 49 AUDIO
    TITLE "35:cjc123_8074"
    INDEX 01 01:05:36
  TRACK 50 AUDIO
    TITLE "0:"
    INDEX 01 01:09:20
  TRACK 51 AUDIO
    TITLE "33:cjc123_8075"
    INDEX 01 01:10:04
  TRACK 52 AUDIO
    TITLE "0:"
    INDEX 01 01:11:09
  TRACK 53 AUDIO
    TITLE "34:cjc123_8076"
    INDEX 01 01:11:27
  TRACK 54 AUDIO
    TITLE "0:"
    INDEX 01 01:12:23
  TRACK 55 AUDIO
    TITLE "35:cjc123_8077"
    INDEX 01 01:12:71
  TRACK 56 AUDIO
    TITLE "0:"
    INDEX 01 01:17:10
  TRACK 57 AUDIO
    TITLE "33:cjc123_8078"
    INDEX 01 01:17:67
  TRACK 58 AUDIO
    TITLE "0:"
    INDEX 01 01:19:09
  TRACK 59 AUDIO
    TITLE "34:cjc123_8079"
    INDEX 01 01:19:50
  TRACK 60 AUDIO
    TITLE "0:"
    INDEX 01 01:21:10
  TRACK 61 AUDIO
    TITLE "35:cjc123_8080"
    INDEX 01 01:21:57
  TRACK 62 AUDIO
    TITLE "0:"
    INDEX 01 01:25:31
  TRACK 63 AUDIO
    TITLE "33:cjc123_8081"
    INDEX 01 01:26:23
  TRACK 64 AUDIO
    TITLE "0:"
    INDEX 01 01:27:04
  TRACK 65 AUDIO
    TITLE "34:cjc123_8082"
    INDEX 01 01:27:32
  TRACK 66 AUDIO
    TITLE "0:"
    INDEX 01 01:28:29
  TRACK 67 AUDIO
    TITLE "35:cjc123_8083"
    INDEX 01 01:29:01
  TRACK 68 AUDIO
    TITLE "0:"
    INDEX 01 01:33:13
  TRACK 69 AUDIO
    TITLE "33:cjc123_8084"
    INDEX 01 01:33:62
  TRACK 70 AUDIO
    TITLE "0:"
    INDEX 01 01:35:10
  TRACK 71 AUDIO
    TITLE "34:cjc123_8085"
    INDEX 01 01:35:29
  TRACK 72 AUDIO
    TITLE "0:"
    INDEX 01 01:36:37
  TRACK 73 AUDIO
    TITLE "35:cjc123_8086"
    INDEX 01 01:37:13
  TRACK 74 AUDIO
    TITLE "0:"
    INDEX 01 01:41:46
  TRACK 75 AUDIO
    TITLE "33:cjc123_8087"
    INDEX 01 01:42:22
  TRACK 76 AUDIO
    TITLE "0:"
    INDEX 01 01:43:43
  TRACK 77 AUDIO
    TITLE "34:cjc123_8088"
    INDEX 01 01:43:52
  TRACK 78 AUDIO
    TITLE "0:"
    INDEX 01 01:44:60
  TRACK 79 AUDIO
    TITLE "35:cjc123_8089"
    INDEX 01 01:45:36
  TRACK 80 AUDIO
    TITLE "0:"
    INDEX 01 01:49:10
  TRACK 81 AUDIO
    TITLE "33:cjc123_8090"
    INDEX 01 01:49:59
  TRACK 82 AUDIO
    TITLE "0:"
    INDEX 01 01:50:53
  TRACK 83 AUDIO
    TITLE "34:cjc123_8091"
    INDEX 01 01:50:72
  TRACK 84 AUDIO
    TITLE "0:"
    INDEX 01 01:52:00
  TRACK 85 AUDIO
    TITLE "35:cjc123_8092"
    INDEX 01 01:52:49
  TRACK 86 AUDIO
    TITLE "0:"
    INDEX 01 01:57:19
  TRACK 87 AUDIO
    TITLE "33:cjc123_8093"
    INDEX 01 01:57:70
  TRACK 88 AUDIO
    TITLE "0:"
    INDEX 01 01:59:30
  TRACK 89 AUDIO
    TITLE "34:cjc123_8094"
    INDEX 01 01:59:55
  TRACK 90 AUDIO
    TITLE "0:"
    INDEX 01 02:01:11
  TRACK 91 AUDIO
    TITLE "35:cjc123_8095"
    INDEX 01 02:01:56
  TRACK 92 AUDIO
    TITLE "0:"
    INDEX 01 02:06:40
